<svg width="25" height="25" viewBox="0 0 25 25" fill="none" xmlns="http://www.w3.org/2000/svg">
<g clip-path="url(#clip0_786_1191)">
<path d="M12.5204 25.6279L12.1452 25.4615C11.7276 25.2782 1.97656 20.8743 1.97656 12.8996V5.98488C1.97693 5.31945 2.18725 4.67109 2.57757 4.13215C2.96788 3.59321 3.51829 3.19116 4.15041 2.98326L12.5755 0.19043L21.0006 2.98326C21.6328 3.19116 22.1832 3.59321 22.5735 4.13215C22.9638 4.67109 23.1741 5.31945 23.1745 5.98488V12.8996C23.1745 21.9904 13.3302 25.3587 12.9104 25.4986L12.5204 25.6279ZM12.5755 2.41303L4.82132 4.98434C4.61035 5.05325 4.42659 5.18716 4.29636 5.36688C4.16614 5.54661 4.09612 5.76293 4.09635 5.98488V12.8996C4.09635 18.7227 10.9221 22.5002 12.6253 23.3513C14.3254 22.6676 21.0547 19.5378 21.0547 12.8996V5.98488C21.0549 5.76293 20.9849 5.54661 20.8547 5.36688C20.7245 5.18716 20.5407 5.05325 20.3297 4.98434L12.5755 2.41303Z" fill="#70758C" stroke="white" stroke-width="0.5"/>
<path d="M11.6351 15.5941H11.6001C11.3319 15.59 11.0672 15.5315 10.8222 15.4222C10.5772 15.3129 10.3569 15.155 10.1746 14.9582L7.73047 12.4144L9.25778 10.9496L11.6362 13.4298L17.1275 7.93848L18.6262 9.43717L13.0501 15.0133C12.8644 15.1989 12.6437 15.3457 12.4008 15.4454C12.1579 15.5451 11.8977 15.5957 11.6351 15.5941Z" fill="#70758C" stroke="white" stroke-width="0.5"/>
</g>
<defs>
<clipPath id="clip0_786_1191">
<rect width="25" height="25" fill="white"/>
</clipPath>
</defs>
</svg>
