<svg width="190" height="61" viewBox="0 0 190 61" fill="none" xmlns="http://www.w3.org/2000/svg">
<path d="M86.5459 56.3488C86.5459 55.6524 87.1104 55.0879 87.8068 55.0879H174.81C175.506 55.0879 176.071 55.6524 176.071 56.3488V56.3488C176.071 57.0452 175.506 57.6097 174.81 57.6097H87.8068C87.1104 57.6097 86.5459 57.0452 86.5459 56.3488V56.3488Z" fill="#FFBB00"/>
<path d="M170.646 47.8562C170.729 47.8941 170.835 47.9281 170.963 47.9584C171.099 47.9962 171.232 48.0151 171.36 48.0151C171.777 48.0151 172.102 47.9206 172.336 47.7314C172.571 47.5498 172.783 47.251 172.972 46.8349C172.495 45.927 172.049 44.9662 171.633 43.9525C171.224 42.9311 170.884 41.8984 170.612 40.8544H171.746C171.83 41.1948 171.928 41.5618 172.041 41.9552C172.162 42.3486 172.295 42.7533 172.439 43.1694C172.582 43.5855 172.737 44.0016 172.904 44.4177C173.07 44.8338 173.244 45.2348 173.426 45.6206C173.713 44.8263 173.963 44.0395 174.175 43.2602C174.387 42.481 174.587 41.679 174.776 40.8544H175.866C175.593 41.9665 175.291 43.037 174.958 44.0659C174.625 45.0873 174.266 46.0443 173.88 46.937C173.728 47.2775 173.57 47.5688 173.403 47.8109C173.244 48.0605 173.067 48.2648 172.87 48.4237C172.673 48.5825 172.45 48.6998 172.2 48.7755C171.958 48.8511 171.682 48.8889 171.372 48.8889C171.289 48.8889 171.202 48.8814 171.111 48.8662C171.02 48.8587 170.929 48.8435 170.838 48.8209C170.755 48.8057 170.676 48.7868 170.6 48.7641C170.532 48.7414 170.483 48.7225 170.453 48.7074L170.646 47.8562Z" fill="#27235C"/>
<path d="M167.759 40.8544H169.995V41.7396H167.759V44.4632C167.759 44.7582 167.782 45.0041 167.827 45.2008C167.872 45.3899 167.941 45.5412 168.031 45.6547C168.122 45.7606 168.236 45.8363 168.372 45.8817C168.508 45.9271 168.667 45.9498 168.848 45.9498C169.166 45.9498 169.42 45.9157 169.609 45.8476C169.805 45.772 169.942 45.719 170.017 45.6888L170.222 46.5626C170.116 46.6155 169.93 46.6798 169.666 46.7555C169.401 46.8387 169.098 46.8803 168.758 46.8803C168.357 46.8803 168.024 46.8312 167.759 46.7328C167.502 46.6269 167.294 46.4718 167.135 46.2675C166.976 46.0633 166.862 45.8136 166.794 45.5185C166.734 45.2159 166.704 44.8679 166.704 44.4745V39.2089L167.759 39.0273V40.8544Z" fill="#27235C"/>
<path d="M164.957 46.7555H163.902V40.8544H164.957V46.7555ZM164.424 39.7877C164.234 39.7877 164.072 39.7271 163.936 39.6061C163.807 39.4775 163.743 39.3073 163.743 39.0954C163.743 38.8836 163.807 38.7172 163.936 38.5961C164.072 38.4675 164.234 38.4032 164.424 38.4032C164.613 38.4032 164.772 38.4675 164.9 38.5961C165.036 38.7172 165.104 38.8836 165.104 39.0954C165.104 39.3073 165.036 39.4775 164.9 39.6061C164.772 39.7271 164.613 39.7877 164.424 39.7877Z" fill="#27235C"/>
<path d="M162.569 46.869C161.918 46.8538 161.457 46.7139 161.184 46.4491C160.912 46.1843 160.776 45.772 160.776 45.2121V38.1308L161.831 37.9493V45.0419C161.831 45.2159 161.846 45.3597 161.877 45.4731C161.907 45.5866 161.956 45.6774 162.024 45.7455C162.092 45.8136 162.183 45.8665 162.297 45.9044C162.41 45.9346 162.55 45.9611 162.716 45.9838L162.569 46.869Z" fill="#27235C"/>
<path d="M158.552 46.7555H157.497V40.8544H158.552V46.7555ZM158.019 39.7877C157.83 39.7877 157.667 39.7271 157.531 39.6061C157.402 39.4775 157.338 39.3073 157.338 39.0954C157.338 38.8836 157.402 38.7171 157.531 38.5961C157.667 38.4675 157.83 38.4032 158.019 38.4032C158.208 38.4032 158.367 38.4675 158.495 38.5961C158.632 38.7171 158.7 38.8836 158.7 39.0954C158.7 39.3073 158.632 39.4775 158.495 39.6061C158.367 39.7271 158.208 39.7877 158.019 39.7877Z" fill="#27235C"/>
<path d="M151.643 41.1154C151.772 41.0322 151.965 40.9452 152.222 40.8544C152.487 40.7636 152.789 40.7182 153.13 40.7182C153.554 40.7182 153.928 40.7939 154.253 40.9452C154.586 41.0965 154.866 41.3083 155.093 41.5807C155.32 41.8531 155.49 42.1784 155.604 42.5566C155.725 42.9349 155.785 43.351 155.785 43.8049C155.785 44.2816 155.714 44.7128 155.57 45.0986C155.434 45.4769 155.237 45.7985 154.98 46.0632C154.722 46.328 154.412 46.5323 154.049 46.6761C153.686 46.8198 153.277 46.8917 152.823 46.8917C152.332 46.8917 151.897 46.8576 151.518 46.7895C151.14 46.7214 150.83 46.6534 150.588 46.5853V38.1308L151.643 37.9493V41.1154ZM151.643 45.8363C151.749 45.8665 151.897 45.8968 152.086 45.9271C152.283 45.9498 152.525 45.9611 152.812 45.9611C153.38 45.9611 153.833 45.7758 154.174 45.405C154.514 45.0268 154.685 44.4934 154.685 43.8049C154.685 43.5023 154.654 43.2186 154.594 42.9538C154.533 42.689 154.435 42.4621 154.299 42.2729C154.163 42.0762 153.985 41.9249 153.765 41.819C153.554 41.7055 153.296 41.6488 152.994 41.6488C152.706 41.6488 152.441 41.698 152.199 41.7963C151.957 41.8947 151.772 41.9968 151.643 42.1027V45.8363Z" fill="#27235C"/>
<path d="M148.773 46.7555H147.717V40.8544H148.773V46.7555ZM148.239 39.7877C148.05 39.7877 147.888 39.7271 147.752 39.6061C147.623 39.4775 147.559 39.3073 147.559 39.0954C147.559 38.8836 147.623 38.7171 147.752 38.5961C147.888 38.4675 148.05 38.4032 148.239 38.4032C148.429 38.4032 148.587 38.4675 148.716 38.5961C148.852 38.7171 148.92 38.8836 148.92 39.0954C148.92 39.3073 148.852 39.4775 148.716 39.6061C148.587 39.7271 148.429 39.7877 148.239 39.7877Z" fill="#27235C"/>
<path d="M144.026 45.9951C144.457 45.9951 144.775 45.9384 144.979 45.8249C145.191 45.7114 145.297 45.5299 145.297 45.2802C145.297 45.023 145.195 44.8187 144.99 44.6674C144.786 44.5161 144.449 44.3459 143.98 44.1567C143.753 44.0659 143.534 43.9751 143.322 43.8844C143.118 43.786 142.94 43.6725 142.789 43.5439C142.638 43.4153 142.516 43.2602 142.426 43.0786C142.335 42.8971 142.29 42.6739 142.29 42.4091C142.29 41.8871 142.482 41.4748 142.868 41.1721C143.254 40.8619 143.78 40.7069 144.446 40.7069C144.612 40.7069 144.779 40.7182 144.945 40.7409C145.111 40.756 145.267 40.7787 145.41 40.809C145.554 40.8317 145.679 40.8582 145.785 40.8884C145.898 40.9187 145.985 40.9452 146.046 40.9679L145.853 41.8757C145.739 41.8152 145.562 41.7547 145.319 41.6942C145.077 41.6261 144.786 41.592 144.446 41.592C144.151 41.592 143.893 41.6525 143.674 41.7736C143.455 41.8871 143.345 42.0686 143.345 42.3183C143.345 42.4469 143.368 42.5604 143.413 42.6588C143.466 42.7571 143.542 42.8479 143.64 42.9311C143.746 43.0068 143.874 43.0786 144.026 43.1467C144.177 43.2148 144.359 43.2867 144.571 43.3623C144.85 43.4683 145.1 43.5742 145.319 43.6801C145.539 43.7784 145.724 43.8957 145.876 44.0319C146.034 44.1681 146.155 44.3345 146.239 44.5312C146.322 44.7204 146.364 44.9549 146.364 45.2348C146.364 45.7795 146.159 46.1918 145.751 46.4718C145.35 46.7517 144.775 46.8916 144.026 46.8916C143.504 46.8916 143.095 46.8463 142.8 46.7555C142.505 46.6722 142.305 46.6079 142.199 46.5625L142.392 45.6547C142.513 45.7001 142.706 45.7682 142.97 45.859C143.235 45.9497 143.587 45.9951 144.026 45.9951Z" fill="#27235C"/>
<path d="M136.136 41.0246C136.378 40.9641 136.7 40.8998 137.101 40.8317C137.502 40.7636 137.963 40.7296 138.485 40.7296C138.954 40.7296 139.344 40.7977 139.654 40.9338C139.964 41.0624 140.21 41.2478 140.392 41.4899C140.581 41.7244 140.713 42.0081 140.789 42.341C140.865 42.6739 140.902 43.0408 140.902 43.4418V46.7555H139.847V43.6688C139.847 43.3056 139.821 42.9954 139.768 42.7382C139.722 42.481 139.643 42.2729 139.529 42.114C139.416 41.9552 139.265 41.8417 139.075 41.7736C138.886 41.6979 138.652 41.6601 138.372 41.6601C138.258 41.6601 138.141 41.6639 138.02 41.6715C137.899 41.679 137.782 41.6904 137.668 41.7055C137.562 41.7131 137.464 41.7244 137.373 41.7396C137.29 41.7547 137.229 41.766 137.192 41.7736V46.7555H136.136V41.0246Z" fill="#27235C"/>
<path d="M134.652 43.8049C134.652 44.274 134.584 44.6977 134.447 45.0759C134.311 45.4542 134.118 45.7795 133.869 46.0519C133.627 46.3242 133.335 46.5361 132.995 46.6874C132.654 46.8311 132.284 46.903 131.883 46.903C131.482 46.903 131.111 46.8311 130.771 46.6874C130.43 46.5361 130.135 46.3242 129.885 46.0519C129.643 45.7795 129.454 45.4542 129.318 45.0759C129.182 44.6977 129.114 44.274 129.114 43.8049C129.114 43.3434 129.182 42.9235 129.318 42.5453C129.454 42.1594 129.643 41.8303 129.885 41.558C130.135 41.2856 130.43 41.0776 130.771 40.9338C131.111 40.7825 131.482 40.7069 131.883 40.7069C132.284 40.7069 132.654 40.7825 132.995 40.9338C133.335 41.0776 133.627 41.2856 133.869 41.558C134.118 41.8303 134.311 42.1594 134.447 42.5453C134.584 42.9235 134.652 43.3434 134.652 43.8049ZM133.551 43.8049C133.551 43.1392 133.4 42.6134 133.097 42.2275C132.802 41.8341 132.397 41.6374 131.883 41.6374C131.368 41.6374 130.96 41.8341 130.657 42.2275C130.362 42.6134 130.215 43.1392 130.215 43.8049C130.215 44.4707 130.362 45.0003 130.657 45.3937C130.96 45.7795 131.368 45.9724 131.883 45.9724C132.397 45.9724 132.802 45.7795 133.097 45.3937C133.4 45.0003 133.551 44.4707 133.551 43.8049Z" fill="#27235C"/>
<path d="M126.857 43.8163C126.857 43.1278 126.687 42.5982 126.346 42.2275C126.006 41.8568 125.552 41.6715 124.985 41.6715C124.667 41.6715 124.417 41.6828 124.236 41.7055C124.062 41.7282 123.922 41.7547 123.816 41.7849V45.5072C123.944 45.6131 124.13 45.7152 124.372 45.8136C124.614 45.9119 124.879 45.9611 125.166 45.9611C125.469 45.9611 125.726 45.9081 125.938 45.8022C126.157 45.6887 126.335 45.5374 126.471 45.3483C126.607 45.1516 126.706 44.9246 126.766 44.6674C126.827 44.4026 126.857 44.1189 126.857 43.8163ZM127.958 43.8163C127.958 44.2626 127.897 44.675 127.776 45.0532C127.663 45.4315 127.492 45.7568 127.266 46.0292C127.039 46.3015 126.759 46.5134 126.426 46.6647C126.1 46.816 125.726 46.8917 125.302 46.8917C124.962 46.8917 124.659 46.8463 124.394 46.7555C124.137 46.6647 123.944 46.5777 123.816 46.4945V48.8549H122.76V41.036C123.01 40.9754 123.32 40.9111 123.691 40.843C124.069 40.7674 124.504 40.7296 124.996 40.7296C125.45 40.7296 125.858 40.8014 126.221 40.9452C126.585 41.0889 126.895 41.2932 127.152 41.558C127.409 41.8228 127.606 42.1481 127.742 42.5339C127.886 42.9122 127.958 43.3397 127.958 43.8163Z" fill="#27235C"/>
<path d="M119.069 45.9951C119.5 45.9951 119.818 45.9384 120.022 45.8249C120.234 45.7114 120.34 45.5299 120.34 45.2802C120.34 45.023 120.238 44.8187 120.033 44.6674C119.829 44.5161 119.492 44.3459 119.023 44.1567C118.796 44.0659 118.577 43.9751 118.365 43.8844C118.161 43.786 117.983 43.6725 117.832 43.5439C117.681 43.4153 117.559 43.2602 117.469 43.0786C117.378 42.8971 117.332 42.6739 117.332 42.4091C117.332 41.8871 117.525 41.4748 117.911 41.1721C118.297 40.8619 118.823 40.7069 119.489 40.7069C119.655 40.7069 119.822 40.7182 119.988 40.7409C120.154 40.756 120.31 40.7787 120.453 40.809C120.597 40.8317 120.722 40.8582 120.828 40.8884C120.941 40.9187 121.028 40.9452 121.089 40.9679L120.896 41.8757C120.782 41.8152 120.605 41.7547 120.362 41.6942C120.12 41.6261 119.829 41.592 119.489 41.592C119.194 41.592 118.936 41.6525 118.717 41.7736C118.498 41.8871 118.388 42.0686 118.388 42.3183C118.388 42.4469 118.411 42.5604 118.456 42.6588C118.509 42.7571 118.585 42.8479 118.683 42.9311C118.789 43.0068 118.917 43.0786 119.069 43.1467C119.22 43.2148 119.402 43.2867 119.613 43.3623C119.893 43.4683 120.143 43.5742 120.362 43.6801C120.582 43.7784 120.767 43.8957 120.919 44.0319C121.077 44.1681 121.198 44.3345 121.282 44.5312C121.365 44.7204 121.407 44.9549 121.407 45.2348C121.407 45.7795 121.202 46.1918 120.794 46.4718C120.393 46.7517 119.818 46.8916 119.069 46.8916C118.547 46.8916 118.138 46.8463 117.843 46.7555C117.548 46.6722 117.348 46.6079 117.242 46.5625L117.435 45.6547C117.556 45.7001 117.749 45.7682 118.013 45.859C118.278 45.9497 118.63 45.9951 119.069 45.9951Z" fill="#27235C"/>
<path d="M111.027 43.8163C111.027 43.2943 111.103 42.8403 111.254 42.4545C111.406 42.0611 111.606 41.7358 111.856 41.4785C112.105 41.2213 112.393 41.0284 112.718 40.8998C113.044 40.7712 113.376 40.7069 113.717 40.7069C114.511 40.7069 115.12 40.9565 115.544 41.4558C115.968 41.9476 116.179 42.7004 116.179 43.7141C116.179 43.7595 116.179 43.8201 116.179 43.8957C116.179 43.9638 116.176 44.0281 116.168 44.0886H112.128C112.174 44.7014 112.351 45.1667 112.661 45.4845C112.972 45.8022 113.456 45.9611 114.114 45.9611C114.485 45.9611 114.795 45.9308 115.045 45.8703C115.302 45.8022 115.495 45.7379 115.623 45.6774L115.771 46.5625C115.642 46.6306 115.415 46.7025 115.09 46.7782C114.772 46.8538 114.409 46.8916 114.001 46.8916C113.486 46.8916 113.04 46.816 112.661 46.6647C112.291 46.5058 111.984 46.2902 111.742 46.0178C111.5 45.7455 111.319 45.4239 111.198 45.0532C111.084 44.675 111.027 44.2626 111.027 43.8163ZM115.079 43.2375C115.086 42.7609 114.965 42.3713 114.716 42.0686C114.473 41.7585 114.137 41.6034 113.706 41.6034C113.463 41.6034 113.248 41.6525 113.059 41.7509C112.877 41.8417 112.722 41.9627 112.593 42.114C112.465 42.2653 112.363 42.4394 112.287 42.6361C112.219 42.8328 112.174 43.0332 112.151 43.2375H115.079Z" fill="#27235C"/>
<path d="M108.135 43.4644C108.256 43.6158 108.407 43.8162 108.589 44.0659C108.778 44.308 108.971 44.5804 109.167 44.883C109.364 45.178 109.557 45.4882 109.746 45.8135C109.943 46.1388 110.109 46.4528 110.245 46.7554H109.043C108.891 46.4679 108.725 46.1767 108.543 45.8816C108.369 45.5866 108.191 45.3066 108.01 45.0419C107.828 44.7695 107.647 44.5161 107.465 44.2815C107.291 44.047 107.132 43.8427 106.988 43.6687C106.89 43.6763 106.788 43.6801 106.682 43.6801C106.584 43.6801 106.482 43.6801 106.376 43.6801H105.388V46.7554H104.288V39.0046C104.598 38.9289 104.942 38.8798 105.32 38.8571C105.706 38.8268 106.058 38.8117 106.376 38.8117C107.48 38.8117 108.32 39.0197 108.895 39.4358C109.478 39.8519 109.769 40.4723 109.769 41.2969C109.769 41.819 109.629 42.2653 109.349 42.636C109.077 43.0067 108.672 43.2829 108.135 43.4644ZM106.466 39.7763C105.997 39.7763 105.638 39.7876 105.388 39.8103V42.7722H106.171C106.55 42.7722 106.89 42.7533 107.193 42.7155C107.495 42.6776 107.749 42.6058 107.953 42.4998C108.165 42.3939 108.328 42.2464 108.441 42.0573C108.555 41.8606 108.611 41.6033 108.611 41.2856C108.611 40.9905 108.555 40.7447 108.441 40.5479C108.328 40.3512 108.172 40.1962 107.976 40.0827C107.787 39.9692 107.56 39.8898 107.295 39.8444C107.038 39.799 106.762 39.7763 106.466 39.7763Z" fill="#27235C"/>
<path d="M99.3947 40.7296C99.4855 40.7296 99.5876 40.7371 99.7011 40.7523C99.8221 40.7598 99.9394 40.775 100.053 40.7977C100.166 40.8128 100.268 40.8317 100.359 40.8544C100.458 40.8695 100.53 40.8847 100.575 40.8998L100.393 41.819C100.31 41.7887 100.17 41.7547 99.9734 41.7169C99.7843 41.6715 99.5384 41.6488 99.2358 41.6488C99.0391 41.6488 98.8424 41.6715 98.6457 41.7169C98.4566 41.7547 98.3317 41.7812 98.2712 41.7963V46.7555H97.2158V41.1041C97.4655 41.0133 97.7757 40.93 98.1464 40.8544C98.5171 40.7712 98.9332 40.7296 99.3947 40.7296Z" fill="#27235C"/>
<path d="M95.3971 46.5852C95.155 46.6458 94.8335 46.7101 94.4325 46.7782C94.0391 46.8463 93.5814 46.8803 93.0594 46.8803C92.6055 46.8803 92.2234 46.816 91.9132 46.6874C91.603 46.5512 91.3534 46.3621 91.1642 46.12C90.9751 45.8779 90.8389 45.5942 90.7557 45.2689C90.6725 44.936 90.6309 44.569 90.6309 44.1681V40.8544H91.6862V43.9411C91.6862 44.6598 91.7997 45.1743 92.0267 45.4845C92.2537 45.7947 92.6357 45.9497 93.1729 45.9497C93.2863 45.9497 93.4036 45.946 93.5247 45.9384C93.6457 45.9308 93.7592 45.9233 93.8651 45.9157C93.971 45.9006 94.0656 45.8892 94.1488 45.8817C94.2396 45.8665 94.3039 45.8514 94.3417 45.8363V40.8544H95.3971V46.5852Z" fill="#27235C"/>
<path d="M81.6167 42.8176C81.6167 42.1443 81.7151 41.5504 81.9118 41.0359C82.116 40.5215 82.3884 40.094 82.7288 39.7536C83.0768 39.4056 83.4778 39.1446 83.9317 38.9706C84.3932 38.7965 84.8812 38.7095 85.3957 38.7095C85.9026 38.7095 86.3792 38.7965 86.8255 38.9706C87.2795 39.1446 87.6767 39.4056 88.0171 39.7536C88.3576 40.094 88.6261 40.5215 88.8228 41.0359C89.0271 41.5504 89.1292 42.1443 89.1292 42.8176C89.1292 43.4909 89.0271 44.0848 88.8228 44.5993C88.6261 45.1137 88.3576 45.545 88.0171 45.893C87.6767 46.2334 87.2795 46.4907 86.8255 46.6647C86.3792 46.8387 85.9026 46.9257 85.3957 46.9257C84.8812 46.9257 84.3932 46.8387 83.9317 46.6647C83.4778 46.4907 83.0768 46.2334 82.7288 45.893C82.3884 45.545 82.116 45.1137 81.9118 44.5993C81.7151 44.0848 81.6167 43.4909 81.6167 42.8176ZM82.7742 42.8176C82.7742 43.2942 82.8347 43.7292 82.9558 44.1227C83.0768 44.5085 83.2471 44.8376 83.4665 45.1099C83.6934 45.3823 83.9658 45.5941 84.2835 45.7455C84.6089 45.8892 84.972 45.9611 85.373 45.9611C85.7739 45.9611 86.1333 45.8892 86.451 45.7455C86.7688 45.5941 87.0374 45.3823 87.2568 45.1099C87.4837 44.8376 87.6577 44.5085 87.7788 44.1227C87.8998 43.7292 87.9604 43.2942 87.9604 42.8176C87.9604 42.341 87.8998 41.9097 87.7788 41.5239C87.6577 41.1305 87.4837 40.7976 87.2568 40.5253C87.0374 40.2529 86.7688 40.0449 86.451 39.9011C86.1333 39.7498 85.7739 39.6741 85.373 39.6741C84.972 39.6741 84.6089 39.7498 84.2835 39.9011C83.9658 40.0449 83.6934 40.2529 83.4665 40.5253C83.2471 40.7976 83.0768 41.1305 82.9558 41.5239C82.8347 41.9097 82.7742 42.341 82.7742 42.8176Z" fill="#27235C"/>
<path d="M76.3792 46.1654C76.2884 46.2259 76.1106 46.3053 75.8458 46.4037C75.5886 46.4945 75.286 46.5399 74.938 46.5399C74.5824 46.5399 74.2457 46.4831 73.928 46.3696C73.6178 46.2562 73.3454 46.0821 73.1109 45.8476C72.8764 45.6055 72.691 45.3067 72.5549 44.9511C72.4187 44.5955 72.3506 44.1719 72.3506 43.6801C72.3506 43.2489 72.4149 42.8555 72.5435 42.4999C72.6721 42.1367 72.8575 41.8266 73.0996 41.5693C73.3492 41.3045 73.6518 41.1003 74.0074 40.9565C74.363 40.8052 74.764 40.7296 75.2103 40.7296C75.7021 40.7296 76.1296 40.7674 76.4927 40.843C76.8634 40.9111 77.1736 40.9754 77.4232 41.036V46.3015C77.4232 47.2094 77.1887 47.8676 76.7197 48.2761C76.2506 48.6847 75.5394 48.8889 74.5862 48.8889C74.2155 48.8889 73.8637 48.8587 73.5308 48.7982C73.2055 48.7376 72.9218 48.6658 72.6797 48.5825L72.8726 47.6633C73.0844 47.7466 73.3417 47.8184 73.6443 47.879C73.9545 47.947 74.276 47.9811 74.6089 47.9811C75.2368 47.9811 75.687 47.8563 75.9593 47.6066C76.2392 47.3569 76.3792 46.9597 76.3792 46.415V46.1654ZM76.3679 41.7849C76.2619 41.7547 76.1182 41.7282 75.9366 41.7055C75.7626 41.6752 75.5243 41.6601 75.2217 41.6601C74.6543 41.6601 74.2155 41.8455 73.9053 42.2162C73.6027 42.5869 73.4514 43.0786 73.4514 43.6915C73.4514 44.0319 73.493 44.3232 73.5762 44.5653C73.667 44.8074 73.7842 45.0078 73.928 45.1667C74.0793 45.3256 74.2495 45.4429 74.4387 45.5185C74.6354 45.5942 74.8359 45.632 75.0401 45.632C75.32 45.632 75.5773 45.5942 75.8118 45.5185C76.0463 45.4353 76.2317 45.3407 76.3679 45.2348V41.7849Z" fill="#27235C"/>
<path d="M66.1631 41.0246C66.4052 40.9641 66.7267 40.8998 67.1277 40.8317C67.5287 40.7636 67.9902 40.7296 68.5122 40.7296C68.9812 40.7296 69.3709 40.7977 69.681 40.9338C69.9912 41.0624 70.2371 41.2478 70.4187 41.4899C70.6078 41.7244 70.7402 42.0081 70.8159 42.341C70.8915 42.6739 70.9293 43.0408 70.9293 43.4418V46.7555H69.874V43.6688C69.874 43.3056 69.8475 42.9954 69.7945 42.7382C69.7491 42.481 69.6697 42.2729 69.5562 42.114C69.4427 41.9552 69.2914 41.8417 69.1023 41.7736C68.9131 41.6979 68.6786 41.6601 68.3987 41.6601C68.2852 41.6601 68.1679 41.6639 68.0469 41.6715C67.9258 41.679 67.8086 41.6904 67.6951 41.7055C67.5892 41.7131 67.4908 41.7244 67.4 41.7396C67.3168 41.7547 67.2563 41.766 67.2185 41.7736V46.7555H66.1631V41.0246Z" fill="#27235C"/>
<path d="M64.348 46.7555H63.2927V40.8544H64.348V46.7555ZM63.8147 39.7877C63.6255 39.7877 63.4629 39.7271 63.3267 39.6061C63.1981 39.4775 63.1338 39.3073 63.1338 39.0954C63.1338 38.8836 63.1981 38.7171 63.3267 38.5961C63.4629 38.4675 63.6255 38.4032 63.8147 38.4032C64.0038 38.4032 64.1627 38.4675 64.2913 38.5961C64.4275 38.7171 64.4956 38.8836 64.4956 39.0954C64.4956 39.3073 64.4275 39.4775 64.2913 39.6061C64.1627 39.7271 64.0038 39.7877 63.8147 39.7877Z" fill="#27235C"/>
<path d="M59.7141 40.8544H61.9497V41.7396H59.7141V44.4632C59.7141 44.7582 59.7368 45.0041 59.7822 45.2008C59.8276 45.3899 59.8957 45.5412 59.9864 45.6547C60.0772 45.7606 60.1907 45.8363 60.3269 45.8817C60.4631 45.9271 60.6219 45.9498 60.8035 45.9498C61.1213 45.9498 61.3747 45.9157 61.5638 45.8476C61.7605 45.772 61.8967 45.719 61.9724 45.6888L62.1766 46.5626C62.0707 46.6155 61.8854 46.6798 61.6206 46.7555C61.3558 46.8387 61.0532 46.8803 60.7127 46.8803C60.3118 46.8803 59.9789 46.8312 59.7141 46.7328C59.4568 46.6269 59.2488 46.4718 59.0899 46.2675C58.931 46.0633 58.8176 45.8136 58.7495 45.5185C58.689 45.2159 58.6587 44.8679 58.6587 44.4745V39.2089L59.7141 39.0274V40.8544Z" fill="#27235C"/>
<path d="M55.0356 45.9951C55.4668 45.9951 55.7845 45.9384 55.9888 45.8249C56.2006 45.7114 56.3066 45.5299 56.3066 45.2802C56.3066 45.023 56.2044 44.8187 56.0002 44.6674C55.7959 44.5161 55.4592 44.3459 54.9902 44.1567C54.7632 44.0659 54.5438 43.9751 54.332 43.8844C54.1277 43.786 53.9499 43.6725 53.7986 43.5439C53.6473 43.4153 53.5262 43.2602 53.4355 43.0786C53.3447 42.8971 53.2993 42.6739 53.2993 42.4091C53.2993 41.8871 53.4922 41.4748 53.878 41.1721C54.2639 40.8619 54.7897 40.7069 55.4554 40.7069C55.6219 40.7069 55.7883 40.7182 55.9548 40.7409C56.1212 40.756 56.2763 40.7787 56.42 40.809C56.5638 40.8317 56.6886 40.8582 56.7945 40.8884C56.908 40.9187 56.995 40.9452 57.0555 40.9679L56.8626 41.8757C56.7491 41.8152 56.5714 41.7547 56.3293 41.6942C56.0872 41.6261 55.7959 41.592 55.4554 41.592C55.1604 41.592 54.9032 41.6525 54.6838 41.7736C54.4644 41.8871 54.3547 42.0686 54.3547 42.3183C54.3547 42.4469 54.3774 42.5604 54.4228 42.6588C54.4757 42.7571 54.5514 42.8479 54.6497 42.9311C54.7556 43.0068 54.8843 43.0786 55.0356 43.1467C55.1869 43.2148 55.3684 43.2867 55.5803 43.3623C55.8602 43.4683 56.1099 43.5742 56.3293 43.6801C56.5487 43.7784 56.734 43.8957 56.8853 44.0319C57.0442 44.1681 57.1652 44.3345 57.2485 44.5312C57.3317 44.7204 57.3733 44.9549 57.3733 45.2348C57.3733 45.7795 57.169 46.1918 56.7605 46.4718C56.3595 46.7517 55.7845 46.8916 55.0356 46.8916C54.5135 46.8916 54.105 46.8463 53.81 46.7555C53.5149 46.6722 53.3144 46.6079 53.2085 46.5625L53.4014 45.6547C53.5225 45.7001 53.7154 45.7682 53.9802 45.859C54.245 45.9497 54.5968 45.9951 55.0356 45.9951Z" fill="#27235C"/>
<path d="M52.1776 43.8049C52.1776 44.274 52.1095 44.6977 51.9733 45.0759C51.8371 45.4542 51.6442 45.7795 51.3946 46.0519C51.1525 46.3242 50.8612 46.5361 50.5207 46.6874C50.1803 46.8311 49.8096 46.903 49.4086 46.903C49.0076 46.903 48.6369 46.8311 48.2965 46.6874C47.956 46.5361 47.661 46.3242 47.4113 46.0519C47.1692 45.7795 46.9801 45.4542 46.8439 45.0759C46.7077 44.6977 46.6396 44.274 46.6396 43.8049C46.6396 43.3434 46.7077 42.9235 46.8439 42.5453C46.9801 42.1594 47.1692 41.8303 47.4113 41.558C47.661 41.2856 47.956 41.0776 48.2965 40.9338C48.6369 40.7825 49.0076 40.7069 49.4086 40.7069C49.8096 40.7069 50.1803 40.7825 50.5207 40.9338C50.8612 41.0776 51.1525 41.2856 51.3946 41.558C51.6442 41.8303 51.8371 42.1594 51.9733 42.5453C52.1095 42.9235 52.1776 43.3434 52.1776 43.8049ZM51.0768 43.8049C51.0768 43.1392 50.9255 42.6134 50.6229 42.2275C50.3278 41.8341 49.9231 41.6374 49.4086 41.6374C48.8942 41.6374 48.4856 41.8341 48.183 42.2275C47.888 42.6134 47.7404 43.1392 47.7404 43.8049C47.7404 44.4707 47.888 45.0003 48.183 45.3937C48.4856 45.7795 48.8942 45.9724 49.4086 45.9724C49.9231 45.9724 50.3278 45.7795 50.6229 45.3937C50.9255 45.0003 51.0768 44.4707 51.0768 43.8049Z" fill="#27235C"/>
<path d="M43.983 38.8912H45.0838V46.7555H43.983V43.1241H40.1359V46.7555H39.0352V38.8912H40.1359V42.1708H43.983V38.8912Z" fill="#27235C"/>
<path d="M34.1422 40.7296C34.233 40.7296 34.3352 40.7371 34.4486 40.7523C34.5697 40.7598 34.687 40.775 34.8004 40.7977C34.9139 40.8128 35.0161 40.8317 35.1068 40.8544C35.2052 40.8695 35.2771 40.8847 35.3225 40.8998L35.1409 41.819C35.0577 41.7887 34.9177 41.7547 34.721 41.7169C34.5319 41.6715 34.286 41.6488 33.9834 41.6488C33.7867 41.6488 33.59 41.6715 33.3933 41.7169C33.2041 41.7547 33.0793 41.7812 33.0188 41.7963V46.7555H31.9634V41.1041C32.213 41.0133 32.5232 40.93 32.8939 40.8544C33.2646 40.7712 33.6807 40.7296 34.1422 40.7296Z" fill="#27235C"/>
<path d="M30.1447 46.5852C29.9026 46.6458 29.581 46.7101 29.1801 46.7782C28.7867 46.8463 28.329 46.8803 27.8069 46.8803C27.353 46.8803 26.971 46.816 26.6608 46.6874C26.3506 46.5512 26.1009 46.3621 25.9118 46.12C25.7226 45.8779 25.5865 45.5942 25.5032 45.2689C25.42 44.936 25.3784 44.569 25.3784 44.1681V40.8544H26.4338V43.9411C26.4338 44.6598 26.5473 45.1743 26.7743 45.4845C27.0012 45.7947 27.3833 45.9497 27.9204 45.9497C28.0339 45.9497 28.1512 45.946 28.2722 45.9384C28.3933 45.9308 28.5067 45.9233 28.6127 45.9157C28.7186 45.9006 28.8132 45.8892 28.8964 45.8817C28.9872 45.8665 29.0515 45.8514 29.0893 45.8363V40.8544H30.1447V46.5852Z" fill="#27235C"/>
<path d="M23.9618 43.8049C23.9618 44.274 23.8937 44.6977 23.7575 45.0759C23.6213 45.4542 23.4284 45.7795 23.1787 46.0519C22.9366 46.3242 22.6454 46.5361 22.3049 46.6874C21.9645 46.8311 21.5938 46.903 21.1928 46.903C20.7918 46.903 20.4211 46.8311 20.0807 46.6874C19.7402 46.5361 19.4452 46.3242 19.1955 46.0519C18.9534 45.7795 18.7643 45.4542 18.6281 45.0759C18.4919 44.6977 18.4238 44.274 18.4238 43.8049C18.4238 43.3434 18.4919 42.9235 18.6281 42.5453C18.7643 42.1594 18.9534 41.8303 19.1955 41.558C19.4452 41.2856 19.7402 41.0776 20.0807 40.9338C20.4211 40.7825 20.7918 40.7069 21.1928 40.7069C21.5938 40.7069 21.9645 40.7825 22.3049 40.9338C22.6454 41.0776 22.9366 41.2856 23.1787 41.558C23.4284 41.8303 23.6213 42.1594 23.7575 42.5453C23.8937 42.9235 23.9618 43.3434 23.9618 43.8049ZM22.861 43.8049C22.861 43.1392 22.7097 42.6134 22.4071 42.2275C22.112 41.8341 21.7073 41.6374 21.1928 41.6374C20.6783 41.6374 20.2698 41.8341 19.9672 42.2275C19.6721 42.6134 19.5246 43.1392 19.5246 43.8049C19.5246 44.4707 19.6721 45.0003 19.9672 45.3937C20.2698 45.7795 20.6783 45.9724 21.1928 45.9724C21.7073 45.9724 22.112 45.7795 22.4071 45.3937C22.7097 45.0003 22.861 44.4707 22.861 43.8049Z" fill="#27235C"/>
<path d="M14.4654 46.7555V43.6007C13.9434 42.7912 13.4516 41.993 12.9901 41.2062C12.5286 40.4194 12.0936 39.6477 11.6851 38.8912H12.9788C13.2662 39.5115 13.5878 40.1433 13.9434 40.7863C14.2989 41.4218 14.6659 42.0346 15.0441 42.6247C15.4148 42.0346 15.778 41.4218 16.1336 40.7863C16.4891 40.1433 16.8145 39.5115 17.1095 38.8912H18.3351C17.9266 39.6477 17.4916 40.4194 17.0301 41.2062C16.5686 41.9855 16.0806 42.776 15.5662 43.578V46.7555H14.4654Z" fill="#27235C"/>
<path d="M169.612 31.0763C168.354 31.0763 167.225 30.8324 166.224 30.3446C165.248 29.8312 164.414 29.138 163.721 28.2652C163.053 27.3923 162.54 26.3911 162.18 25.2615C161.846 24.1063 161.68 22.874 161.68 21.5647C161.705 20.2554 161.898 19.036 162.257 17.9064C162.617 16.7511 163.13 15.7499 163.798 14.9027C164.491 14.0299 165.325 13.3496 166.301 12.8618C167.276 12.374 168.38 12.1301 169.612 12.1301C170.793 12.1301 171.897 12.374 172.924 12.8618C173.977 13.3496 174.901 14.0299 175.697 14.9027C176.518 15.7499 177.16 16.7511 177.622 17.9064C178.084 19.036 178.315 20.2426 178.315 21.5262C178.315 22.8612 178.084 24.1191 177.622 25.3C177.16 26.4553 176.531 27.4693 175.735 28.3422C174.939 29.1894 174.015 29.8569 172.963 30.3446C171.91 30.8324 170.793 31.0763 169.612 31.0763ZM168.996 26.5708C169.895 26.5708 170.703 26.3654 171.422 25.9547C172.141 25.5182 172.706 24.9278 173.117 24.1833C173.553 23.4388 173.771 22.5916 173.771 21.6417C173.771 20.6662 173.553 19.8061 173.117 19.0616C172.706 18.2915 172.141 17.701 171.422 17.2903C170.703 16.8538 169.895 16.6356 168.996 16.6356C168.123 16.6356 167.327 16.8538 166.609 17.2903C165.89 17.7267 165.312 18.3171 164.876 19.0616C164.465 19.8061 164.26 20.6662 164.26 21.6417C164.26 22.5916 164.465 23.4388 164.876 24.1833C165.312 24.9278 165.89 25.5182 166.609 25.9547C167.327 26.3654 168.123 26.5708 168.996 26.5708ZM161.872 31.1148C161.179 31.1148 160.666 30.9993 160.332 30.7682C159.998 30.5629 159.793 30.2933 159.716 29.9596C159.639 29.6001 159.6 29.2022 159.6 28.7658V5.81472C159.6 5.37829 159.639 4.99321 159.716 4.65947C159.793 4.30005 159.998 4.01766 160.332 3.81228C160.666 3.6069 161.179 3.50421 161.872 3.50421C162.591 3.50421 163.104 3.6069 163.412 3.81228C163.721 4.01766 163.913 4.30005 163.99 4.65947C164.067 5.01888 164.106 5.40396 164.106 5.81472V29.536C164.003 30.1007 163.785 30.4987 163.451 30.7297C163.143 30.9864 162.617 31.1148 161.872 31.1148Z" fill="#27235C" stroke="#27235C" stroke-width="0.5"/>
<path d="M148.123 31.3464C146.454 31.3464 144.991 31.0768 143.733 30.5377C142.5 29.9986 141.461 29.2669 140.613 28.3427C139.792 27.3928 139.163 26.3403 138.726 25.185C138.316 24.0041 138.11 22.7846 138.11 21.5267C138.11 19.6783 138.534 18.0353 139.381 16.5976C140.228 15.16 141.396 14.0304 142.885 13.2089C144.4 12.3874 146.133 11.9766 148.084 11.9766C149.47 11.9766 150.69 12.1948 151.742 12.6312C152.795 13.0677 153.668 13.6453 154.361 14.3641C155.08 15.0573 155.619 15.8274 155.978 16.6746C156.363 17.5218 156.556 18.3433 156.556 19.1392C156.556 20.4998 156.222 21.4882 155.555 22.1043C154.913 22.7205 154.104 23.0285 153.129 23.0285H142.962C142.988 23.9014 143.258 24.6587 143.771 25.3005C144.31 25.9423 144.978 26.443 145.774 26.8024C146.595 27.1361 147.429 27.303 148.277 27.303C148.918 27.303 149.483 27.2645 149.971 27.1875C150.484 27.1104 150.921 27.0206 151.28 26.9179C151.64 26.7895 151.948 26.6612 152.204 26.5328C152.487 26.4044 152.744 26.2889 152.975 26.1862C153.206 26.0835 153.424 26.0194 153.629 25.9937C153.912 25.968 154.194 26.0322 154.476 26.1862C154.759 26.3403 154.99 26.6098 155.17 26.9949C155.324 27.2516 155.426 27.4955 155.478 27.7266C155.555 27.932 155.593 28.1373 155.593 28.3427C155.593 28.8562 155.285 29.3439 154.669 29.806C154.053 30.2425 153.18 30.6019 152.05 30.8843C150.947 31.1923 149.637 31.3464 148.123 31.3464ZM142.962 20.2944H150.857C151.293 20.2944 151.627 20.2302 151.858 20.1019C152.089 19.9479 152.204 19.6398 152.204 19.1777C152.204 18.5872 152.025 18.0609 151.665 17.5988C151.306 17.1111 150.818 16.7388 150.202 16.4821C149.586 16.1997 148.867 16.0585 148.046 16.0585C147.096 16.0585 146.236 16.251 145.465 16.6361C144.695 16.9955 144.079 17.4961 143.617 18.138C143.181 18.7798 142.962 19.4986 142.962 20.2944Z" fill="#27235C" stroke="#27235C" stroke-width="0.5"/>
<path d="M113.67 31.0007C113.157 31.0007 112.746 30.9109 112.438 30.7312C112.13 30.5258 111.899 30.2948 111.745 30.038C111.617 29.7813 111.527 29.5631 111.475 29.3834L103.928 7.2795C103.671 6.45799 103.632 5.84185 103.812 5.4311C103.992 4.99467 104.518 4.63525 105.391 4.35286C105.981 4.14748 106.456 4.05763 106.816 4.0833C107.175 4.10897 107.47 4.26301 107.702 4.5454C107.958 4.80213 108.176 5.21288 108.356 5.77767L113.901 22.5674L118.869 5.93171C118.946 5.67498 119.049 5.41826 119.177 5.16154C119.331 4.87914 119.562 4.64809 119.87 4.46838C120.178 4.28868 120.602 4.19883 121.141 4.19883C121.757 4.19883 122.219 4.30152 122.527 4.50689C122.835 4.71227 123.054 4.94332 123.182 5.20005C123.336 5.4311 123.439 5.64931 123.49 5.85469L128.458 22.6829L134.041 5.81618C134.221 5.22572 134.426 4.78929 134.657 4.50689C134.914 4.2245 135.235 4.07046 135.62 4.04479C136.005 3.99345 136.48 4.07046 137.045 4.27584C137.635 4.48122 138.059 4.71227 138.316 4.969C138.573 5.20005 138.701 5.50811 138.701 5.8932C138.701 6.25261 138.611 6.71471 138.431 7.2795L130.922 29.4219C130.871 29.5759 130.768 29.7813 130.614 30.038C130.486 30.2948 130.268 30.5258 129.959 30.7312C129.651 30.9109 129.228 31.0007 128.689 31.0007C128.15 31.0007 127.726 30.8852 127.418 30.6542C127.11 30.4231 126.879 30.1664 126.725 29.884C126.571 29.6016 126.468 29.3962 126.417 29.2679L121.18 12.3241L115.942 29.2293C115.891 29.4091 115.788 29.6401 115.634 29.9225C115.506 30.2049 115.288 30.4616 114.98 30.6927C114.672 30.898 114.235 31.0007 113.67 31.0007Z" fill="#27235C" stroke="#27235C" stroke-width="0.5"/>
<path d="M93.6464 31.3467C92.9789 31.3467 92.273 31.2697 91.5285 31.1157C90.784 30.9873 90.0651 30.7948 89.372 30.538C88.6788 30.2556 88.0755 29.9347 87.5621 29.5753C87.0743 29.1902 86.7662 28.7666 86.6379 28.3045C86.5352 28.0478 86.4967 27.8039 86.5224 27.5729C86.548 27.3162 86.625 27.0594 86.7534 26.8027C86.8818 26.5203 87.0743 26.2379 87.331 25.9555C87.5621 25.6731 87.7931 25.5191 88.0242 25.4934C88.2809 25.4421 88.6018 25.5191 88.9869 25.7245C89.3206 25.8528 89.68 26.0197 90.0651 26.2251C90.4759 26.4305 90.8866 26.6358 91.2974 26.8412C91.7338 27.0466 92.1703 27.2135 92.6067 27.3418C93.0688 27.4702 93.5181 27.5344 93.9545 27.5344C94.9044 27.5344 95.6617 27.3803 96.2265 27.0723C96.7913 26.7385 97.0737 26.2764 97.0737 25.686C97.0737 25.3522 96.9838 25.057 96.8041 24.8003C96.6244 24.5435 96.3805 24.3382 96.0725 24.1841C95.7901 24.0044 95.4435 23.8504 95.0327 23.722C94.6476 23.568 94.224 23.4396 93.7619 23.3369C93.3255 23.2086 92.8634 23.0674 92.3756 22.9134C91.7338 22.7336 91.092 22.5154 90.4502 22.2587C89.8084 22.002 89.2308 21.6682 88.7173 21.2575C88.2296 20.8467 87.8316 20.3333 87.5236 19.7171C87.2155 19.101 87.0615 18.3308 87.0615 17.4066C87.0615 16.2514 87.331 15.2758 87.8702 14.48C88.4349 13.6585 89.2436 13.0295 90.2962 12.5931C91.3487 12.1566 92.6195 11.9384 94.1085 11.9384C94.622 11.9384 95.1097 11.9769 95.5719 12.054C96.0596 12.131 96.5217 12.2465 96.9582 12.4005C97.4203 12.5289 97.8567 12.6958 98.2674 12.9011C98.7039 13.1065 99.1146 13.3376 99.4997 13.5943C100.142 13.9537 100.475 14.3773 100.501 14.8651C100.527 15.3272 100.347 15.8278 99.9618 16.3669C99.6794 16.7263 99.397 16.983 99.1146 17.1371C98.8322 17.2654 98.537 17.2654 98.2289 17.1371C97.8182 16.9317 97.3689 16.7135 96.8811 16.4824C96.419 16.2257 95.9313 16.0075 95.4178 15.8278C94.93 15.6481 94.4166 15.5582 93.8775 15.5582C93.364 15.5582 92.9019 15.6352 92.4912 15.7893C92.0804 15.9433 91.7723 16.1615 91.567 16.4439C91.3616 16.7263 91.2589 17.0601 91.2589 17.4451C91.2589 17.8046 91.3616 18.0998 91.567 18.3308C91.7723 18.5619 92.0419 18.7544 92.3756 18.9085C92.7094 19.0625 93.1073 19.2037 93.5694 19.3321C94.0315 19.4348 94.5193 19.5374 95.0327 19.6401C95.7516 19.7942 96.4832 19.9867 97.2277 20.2178C97.9722 20.4488 98.6525 20.7697 99.2687 21.1805C99.9105 21.5912 100.424 22.1432 100.809 22.8363C101.194 23.5038 101.387 24.3767 101.387 25.4549C101.387 27.329 100.693 28.7795 99.3072 29.8064C97.9465 30.8333 96.0596 31.3467 93.6464 31.3467Z" fill="#27235C" stroke="#27235C" stroke-width="0.5"/>
<path d="M75.4683 31.3462C73.7996 31.3462 72.3362 31.0766 71.0783 30.5375C69.846 29.9984 68.8063 29.2667 67.9591 28.3425C67.1376 27.3926 66.5086 26.3401 66.0722 25.1848C65.6614 24.0039 65.4561 22.7844 65.4561 21.5265C65.4561 19.6781 65.8796 18.0351 66.7268 16.5974C67.574 15.1597 68.7421 14.0302 70.2311 13.2087C71.7458 12.3871 73.4787 11.9764 75.4298 11.9764C76.8161 11.9764 78.0355 12.1946 79.0881 12.631C80.1406 13.0675 81.0135 13.6451 81.7066 14.3639C82.4255 15.0571 82.9646 15.8272 83.324 16.6744C83.7091 17.5216 83.9016 18.3431 83.9016 19.139C83.9016 20.4996 83.5679 21.488 82.9004 22.1041C82.2586 22.7203 81.4499 23.0283 80.4744 23.0283H70.3081C70.3338 23.9012 70.6034 24.6585 71.1168 25.3003C71.6559 25.9421 72.3234 26.4427 73.1192 26.8022C73.9408 27.1359 74.7751 27.3028 75.6223 27.3028C76.2641 27.3028 76.8289 27.2643 77.3167 27.1872C77.8301 27.1102 78.2666 27.0204 78.626 26.9177C78.9854 26.7893 79.2934 26.661 79.5502 26.5326C79.8326 26.4042 80.0893 26.2887 80.3203 26.186C80.5514 26.0833 80.7696 26.0191 80.975 25.9935C81.2574 25.9678 81.5398 26.032 81.8222 26.186C82.1046 26.34 82.3356 26.6096 82.5153 26.9947C82.6694 27.2514 82.772 27.4953 82.8234 27.7264C82.9004 27.9317 82.9389 28.1371 82.9389 28.3425C82.9389 28.8559 82.6308 29.3437 82.0147 29.8058C81.3986 30.2422 80.5257 30.6017 79.3961 30.8841C78.2922 31.1921 76.9829 31.3462 75.4683 31.3462ZM70.3081 20.2942H78.2024C78.6388 20.2942 78.9725 20.23 79.2036 20.1017C79.4346 19.9476 79.5502 19.6396 79.5502 19.1775C79.5502 18.587 79.3705 18.0607 79.0111 17.5986C78.6516 17.1108 78.1639 16.7386 77.5477 16.4819C76.9316 16.1995 76.2128 16.0583 75.3912 16.0583C74.4414 16.0583 73.5813 16.2508 72.8112 16.6359C72.041 16.9953 71.4249 17.4959 70.9628 18.1377C70.5263 18.7795 70.3081 19.4984 70.3081 20.2942Z" fill="#27235C" stroke="#27235C" stroke-width="0.5"/>
<path d="M61.7205 31.1164C60.7706 31.1164 59.9234 31.0523 59.1789 30.9239C58.4601 30.7955 57.8311 30.5773 57.292 30.2693C56.7786 29.9612 56.355 29.5504 56.0212 29.037C55.6875 28.4979 55.4308 27.8432 55.2511 27.0731C55.097 26.3029 55.02 25.3787 55.02 24.3004V5.73934C55.02 5.30291 55.0585 4.91782 55.1355 4.58408C55.2382 4.22467 55.4436 3.94227 55.7517 3.7369C56.0854 3.50584 56.6117 3.39032 57.3305 3.39032C58.0494 3.39032 58.5628 3.49301 58.8709 3.69839C59.2046 3.90377 59.41 4.18616 59.487 4.54558C59.5897 4.87931 59.641 5.2644 59.641 5.70083V24.1079C59.641 24.5957 59.6667 25.0064 59.7181 25.3402C59.7951 25.6482 59.9106 25.905 60.0646 26.1103C60.2443 26.29 60.4626 26.4184 60.7193 26.4954C61.0017 26.5724 61.3354 26.6109 61.7205 26.6109C62.0542 26.6109 62.3495 26.6495 62.6062 26.7265C62.8886 26.8035 63.1068 26.996 63.2608 27.3041C63.4405 27.6122 63.5304 28.1128 63.5304 28.8059C63.5304 29.5248 63.4405 30.051 63.2608 30.3848C63.1068 30.7185 62.8886 30.9239 62.6062 31.0009C62.3238 31.0779 62.0286 31.1164 61.7205 31.1164Z" fill="#27235C" stroke="#27235C" stroke-width="0.5"/>
<path d="M48.5735 31.1159C47.8803 31.1159 47.3669 31.0004 47.0332 30.7693C46.6994 30.564 46.494 30.2944 46.417 29.9607C46.34 29.6012 46.3015 29.2033 46.3015 28.7669V14.4417C46.3015 14.031 46.34 13.6587 46.417 13.325C46.5197 12.9656 46.7251 12.6832 47.0332 12.4778C47.3669 12.2724 47.8932 12.1697 48.612 12.1697C49.3308 12.1697 49.8443 12.2724 50.1523 12.4778C50.4861 12.6832 50.6915 12.9656 50.7685 13.325C50.8455 13.6844 50.884 14.0823 50.884 14.5188V28.8054C50.884 29.2418 50.8455 29.6398 50.7685 29.9992C50.6915 30.3329 50.4861 30.6025 50.1523 30.8078C49.8443 31.0132 49.318 31.1159 48.5735 31.1159ZM48.5735 8.43441C47.829 8.43441 47.277 8.33172 46.9176 8.12634C46.5839 7.89529 46.3657 7.58722 46.263 7.20214C46.186 6.81705 46.1475 6.39346 46.1475 5.93135C46.1475 5.44358 46.186 5.01999 46.263 4.66057C46.3657 4.30116 46.5967 4.01877 46.9561 3.81339C47.3156 3.58234 47.8675 3.46681 48.612 3.46681C49.3822 3.46681 49.9341 3.58234 50.2679 3.81339C50.6016 4.04444 50.8198 4.35251 50.9225 4.73759C51.0252 5.097 51.0766 5.5206 51.0766 6.00837C51.0766 6.4448 51.0252 6.85556 50.9225 7.24065C50.8198 7.62573 50.6016 7.92096 50.2679 8.12634C49.9341 8.33172 49.3693 8.43441 48.5735 8.43441Z" fill="#27235C" stroke="#27235C" stroke-width="0.5"/>
<path d="M16.9453 31.0771C16.2779 31.0771 15.7773 30.9744 15.4435 30.769C15.1098 30.5636 14.8916 30.2812 14.7889 29.9218C14.7118 29.5624 14.6733 29.1645 14.6733 28.728V6.50863C14.6733 6.09787 14.7118 5.72562 14.7889 5.39188C14.8916 5.03247 15.1098 4.75007 15.4435 4.5447C15.7773 4.31365 16.3035 4.19812 17.0224 4.19812C17.5615 4.19812 17.9594 4.23663 18.2161 4.31364C18.4985 4.36499 18.7167 4.45484 18.8708 4.5832C19.0248 4.68589 19.1788 4.82709 19.3329 5.0068L28.7289 18.1382H27.8433L37.2778 4.96829C37.4575 4.76291 37.6372 4.60888 37.817 4.50619C37.9967 4.4035 38.2277 4.32648 38.5101 4.27514C38.7925 4.22379 39.1648 4.19812 39.6269 4.19812C40.32 4.19812 40.8335 4.31365 41.1672 4.5447C41.5009 4.75007 41.7063 5.03247 41.7833 5.39188C41.886 5.75129 41.9374 6.14922 41.9374 6.58565V28.805C41.9374 29.1901 41.886 29.5624 41.7833 29.9218C41.7063 30.2812 41.5009 30.5636 41.1672 30.769C40.8335 30.9744 40.3072 31.0771 39.5883 31.0771C38.8952 31.0771 38.3817 30.9615 38.048 30.7305C37.7143 30.5251 37.4961 30.2427 37.3934 29.8833C37.3163 29.5239 37.2778 29.1388 37.2778 28.728V12.2079L30.2693 22.3356C30.1923 22.4383 30.0767 22.5795 29.9227 22.7592C29.7687 22.9133 29.5633 23.0544 29.3066 23.1828C29.0499 23.3112 28.7033 23.3754 28.2668 23.3754C27.8561 23.3754 27.5223 23.3112 27.2656 23.1828C27.0089 23.0544 26.8035 22.9133 26.6495 22.7592C26.5211 22.6052 26.3928 22.4511 26.2644 22.2971L19.2944 12.2079V28.805C19.2944 29.1901 19.243 29.5624 19.1403 29.9218C19.0633 30.2812 18.8579 30.5636 18.5242 30.769C18.1905 30.9744 17.6642 31.0771 16.9453 31.0771Z" fill="#27235C" stroke="#27235C" stroke-width="0.5"/>
</svg>
