<svg width="20" height="20" viewBox="0 0 20 20" fill="none" xmlns="http://www.w3.org/2000/svg">
<g clip-path="url(#clip0_5151_6556)">
<path d="M10.4545 0H9.54545C4.27365 0 0 4.47715 0 10C0 15.5228 4.27365 20 9.54545 20H10.4545C15.7264 20 20 15.5228 20 10C20 4.47715 15.7264 0 10.4545 0Z" fill="white"/>
<path d="M5 16C4.70621 16 4.48588 15.9509 4.33897 15.8526C4.19209 15.7544 4.09606 15.6193 4.05085 15.4474C4.01694 15.2755 4 15.0851 4 14.8764V5.1052C4 4.90873 4.01694 4.73067 4.05085 4.57103C4.09606 4.3991 4.19209 4.26402 4.33897 4.16577C4.48588 4.05527 4.71751 4 5.0339 4C5.27118 4 5.44633 4.01841 5.55932 4.05527C5.68362 4.07981 5.77966 4.12279 5.84745 4.18419C5.91526 4.23332 5.98305 4.30085 6.05084 4.38681L10.2847 11.5H9.8949L13.9491 4.3684C14.0282 4.27015 14.1073 4.19647 14.1864 4.14736C14.2655 4.09825 14.3672 4.0614 14.4915 4.03683C14.6158 4.01228 14.7796 4 14.983 4C15.2881 4 15.5141 4.05527 15.661 4.16577C15.8079 4.26402 15.8983 4.3991 15.9322 4.57103C15.9774 4.74293 16 4.93327 16 5.14203V14.9132C16 15.0974 15.9774 15.2755 15.9322 15.4474C15.8983 15.6193 15.8079 15.7544 15.661 15.8526C15.5141 15.9509 15.2825 16 14.9661 16C14.661 16 14.435 15.9447 14.2881 15.8342C14.1412 15.736 14.0452 15.6009 14 15.429C13.9661 15.2571 13.9491 15.0729 13.9491 14.8764V6.97421L10.9627 13.5078C10.9288 13.5569 10.878 13.6244 10.8102 13.7104C10.7424 13.7841 10.652 13.8516 10.539 13.913C10.426 13.9744 10.2734 14.0051 10.0814 14.0051C9.90056 14.0051 9.75366 13.9744 9.64068 13.913C9.52769 13.8516 9.43729 13.7841 9.36948 13.7104C9.31299 13.6367 9.2565 13.563 9.2 13.4894L6.0339 6.97421V14.9132C6.0339 15.0974 6.01129 15.2755 5.96611 15.4474C5.9322 15.6193 5.84181 15.7544 5.69491 15.8526C5.54802 15.9509 5.31639 16 5 16Z" fill="#171531" stroke="#171531"/>
</g>
<defs>
<clipPath id="clip0_5151_6556">
<rect width="20" height="20" fill="white"/>
</clipPath>
</defs>
</svg>
