<svg width="25" height="25" viewBox="0 0 25 25" fill="none" xmlns="http://www.w3.org/2000/svg">
<g clip-path="url(#clip0_786_1245)">
<path d="M12.7117 8.94987C11.7802 8.8714 10.8933 9.28211 9.99633 10.182C8.33456 11.8483 8.33456 13.537 9.99633 15.2012C10.4855 15.6924 11.2564 16.3651 12.2887 16.4344C13.2711 16.4996 14.1742 16.0349 15.004 15.2012C16.6658 13.536 16.6648 11.8462 15.004 10.182C14.5149 9.69078 13.744 9.02834 12.7117 8.94885V8.94987ZM13.566 13.7612C13.2589 14.069 12.786 14.4287 12.4453 14.4022C12.1788 14.3818 11.8391 14.1658 11.4354 13.7612C10.635 12.9591 10.5231 12.5382 11.4354 11.6231C11.7313 11.3265 12.1534 10.981 12.5144 10.981C12.5287 10.981 12.5429 10.981 12.5561 10.982C12.8226 11.0024 13.1623 11.2185 13.566 11.6231C14.3664 12.4251 14.4783 12.846 13.566 13.7612Z" fill="#70758C" stroke="white" stroke-width="0.5"/>
<path d="M24.9999 12.6382C25.0068 11.2676 24.486 9.61288 22.0768 9.17193C21.9517 8.93327 21.8141 8.69347 21.6629 8.45254C22.8772 6.77171 22.784 5.21248 21.3809 3.81008C19.9768 2.4054 18.4168 2.31335 16.7341 3.53164C16.4965 3.38163 16.2588 3.24525 16.0212 3.12251C15.5869 0.722296 13.9474 0.19043 12.5796 0.19043C10.6581 0.19043 9.42902 1.20302 9.07087 3.17252C8.83438 3.29639 8.59562 3.43391 8.35571 3.58392C6.68095 2.37472 5.11988 2.47814 3.70207 3.89304C2.2888 5.3068 2.18647 6.86831 3.39281 8.54233C3.24159 8.78326 3.10288 9.02305 2.97667 9.26171C1.01084 9.62083 0.0102986 10.7903 6.5797e-05 12.7427C-0.00675607 14.1133 0.51398 15.768 2.92324 16.2089C3.0483 16.4476 3.18588 16.6874 3.33823 16.9283C2.1228 18.6091 2.21604 20.1684 3.61907 21.5708C5.02323 22.9755 6.5843 23.0675 8.26589 21.8492C8.50352 21.9992 8.74115 22.1356 8.97878 22.2583C9.41311 24.6586 11.0526 25.1904 12.4204 25.1904C14.3771 25.1904 15.571 24.1778 15.9291 22.2083C16.1656 22.0845 16.4044 21.947 16.6443 21.7969C18.3168 23.0027 19.8733 22.897 21.2968 21.4878C22.7203 20.0786 22.8135 18.5125 21.6072 16.8374C21.7584 16.5965 21.8971 16.3567 22.0233 16.1191C23.9892 15.76 24.9897 14.5906 24.9999 12.6382ZM21.1695 13.9417C20.7556 13.9769 20.394 14.236 20.2269 14.6156C19.9984 15.1338 19.6777 15.6771 19.273 16.2282C18.9524 16.6658 18.9865 17.2704 19.3537 17.6704C20.5737 18.9955 20.1644 19.4058 19.6891 19.8809C19.1945 20.3764 18.8023 20.7673 17.48 19.5445C17.0797 19.1762 16.476 19.1422 16.036 19.4626C15.4868 19.8649 14.9456 20.1843 14.426 20.4104C14.0452 20.5775 13.7859 20.9389 13.7495 21.3549C13.6154 22.9118 13.0674 22.9152 12.4341 22.9175C11.7917 22.9175 11.2766 22.9243 11.1584 21.4105C11.1254 20.9889 10.8616 20.6207 10.4728 20.4548C9.95658 20.2332 9.41879 19.9184 8.87531 19.5172C8.67407 19.3683 8.43644 19.2956 8.19995 19.2956C7.92253 19.2956 7.64624 19.3967 7.42908 19.5967C6.08858 20.8321 5.68723 20.4286 5.22448 19.965C4.75945 19.5001 4.3581 19.0978 5.59059 17.7602C5.9601 17.359 5.99308 16.7533 5.6679 16.3146C5.26314 15.768 4.94592 15.2293 4.72421 14.7156C4.55821 14.3281 4.18983 14.0644 3.77028 14.0315C2.26379 13.911 2.26606 13.4007 2.26947 12.7552C2.27288 12.0949 2.27516 11.5733 3.826 11.4392C4.23986 11.4039 4.60141 11.1448 4.76855 10.7653C4.99822 10.2459 5.31885 9.70266 5.72248 9.15147C6.0431 8.71393 6.00899 8.10933 5.64175 7.70929C4.42177 6.38531 4.83222 5.97505 5.30634 5.5C5.80093 5.00564 6.19318 4.6147 7.51549 5.83526C7.91571 6.20461 8.51944 6.23757 8.95831 5.91709C9.50861 5.51478 10.0498 5.19657 10.5694 4.96927C10.9503 4.80221 11.2095 4.44082 11.2459 4.02487C11.3801 2.46791 11.9281 2.4645 12.5614 2.46223C13.2129 2.46677 13.7188 2.45541 13.8371 3.96918C13.8701 4.39081 14.1338 4.75903 14.5227 4.92495C15.0389 5.14656 15.5767 5.46136 16.1201 5.86254C16.5579 6.18529 17.165 6.15233 17.5652 5.78412C18.9057 4.54878 19.3059 4.95223 19.7698 5.4159C20.2349 5.88072 20.6374 6.28303 19.4037 7.62065C19.0342 8.02182 19.0012 8.6287 19.3253 9.06624C19.73 9.61288 20.0473 10.1516 20.269 10.6652C20.435 11.0528 20.8034 11.3164 21.2229 11.3494C22.7294 11.4699 22.7271 11.9801 22.7237 12.6256C22.7203 13.2859 22.718 13.8076 21.1672 13.9417H21.1695Z" fill="#70758C" stroke="white" stroke-width="0.5"/>
</g>
<defs>
<clipPath id="clip0_786_1245">
<rect width="25" height="25" fill="white"/>
</clipPath>
</defs>
</svg>
